<svg width="12" height="13" viewBox="0 0 12 13" fill="none" xmlns="http://www.w3.org/2000/svg">
<g clip-path="url(#clip0_84_162)">
<path d="M11.8359 6.52345C11.8359 7.33907 11.8195 8.15704 11.8406 8.97267C11.8758 10.4164 10.9688 11.532 9.81329 12.0289C9.34923 12.2281 8.86172 12.3336 8.35782 12.3336C6.78047 12.3359 5.20079 12.357 3.62344 12.3266C2.43516 12.3031 1.45782 11.8063 0.757037 10.8266C0.389069 10.3109 0.213287 9.72501 0.213287 9.08985C0.213287 7.40938 0.213287 5.73126 0.213287 4.05079C0.213287 2.6797 0.881256 1.7211 2.06719 1.09767C2.58282 0.828134 3.14297 0.713291 3.72657 0.710947C5.25704 0.710947 6.78985 0.701572 8.32032 0.715634C9.5086 0.725009 10.5 1.1797 11.2313 2.13595C11.6391 2.67032 11.8359 3.28438 11.8359 3.95938C11.8359 4.81251 11.8359 5.66798 11.8359 6.52345ZM1.07813 6.52345C1.07813 7.3836 1.07813 8.24142 1.07813 9.10157C1.07813 9.48595 1.16719 9.84688 1.36641 10.1727C1.88907 11.0281 2.67891 11.4453 3.6586 11.4617C5.23126 11.4852 6.80626 11.4711 8.38126 11.4664C8.76797 11.4664 9.14297 11.3867 9.49219 11.2203C10.4438 10.7656 10.9758 10.0414 10.9711 8.95392C10.9617 7.28985 10.9688 5.62579 10.9688 3.96173C10.9688 3.49063 10.8352 3.05938 10.5563 2.6797C10.0172 1.95079 9.27188 1.5922 8.38126 1.58282C6.81094 1.56407 5.24063 1.57579 3.67032 1.57813C3.33516 1.57813 3.01172 1.6461 2.69766 1.76329C1.83516 2.08438 1.0336 2.89767 1.0711 4.09532C1.09922 4.90626 1.07813 5.71485 1.07813 6.52345Z" fill="#FAFAFA"/>
<path d="M6.0375 9.00782C4.52578 9.00782 3.30703 7.80313 3.30469 6.30313C3.30235 4.82657 4.53047 3.61719 6.03282 3.61719C7.53985 3.61485 8.76328 4.82188 8.76563 6.31016C8.76563 7.7961 7.54453 9.00547 6.0375 9.00782ZM6.0375 8.14063C7.06641 8.14063 7.90078 7.31797 7.89844 6.30547C7.8961 5.30235 7.06172 4.48203 6.0375 4.48203C5.0086 4.48203 4.16953 5.3 4.16953 6.31016C4.17188 7.32266 5.0086 8.14297 6.0375 8.14063Z" fill="#FAFAFA"/>
<path d="M9.08204 2.79688C9.39844 2.79688 9.65626 3.06641 9.65626 3.39687C9.65391 3.72734 9.39376 3.99453 9.07735 3.99219C8.76563 3.98984 8.51016 3.72266 8.51016 3.39922C8.50782 3.06875 8.76563 2.79688 9.08204 2.79688Z" fill="#FAFAFA"/>
</g>
<defs>
<clipPath id="clip0_84_162">
<rect width="12" height="12" fill="white" transform="translate(0 0.5)"/>
</clipPath>
</defs>
</svg>
