<svg width="200" height="45" viewBox="0 0 200 45" fill="none" xmlns="http://www.w3.org/2000/svg">
<g clip-path="url(#clip0_84_81)">
<path d="M120.221 40.2771C120.257 40.2944 120.288 40.3199 120.312 40.3515C120.336 40.3832 120.352 40.4201 120.359 40.4591C120.365 40.4997 120.362 40.541 120.352 40.5806C120.341 40.6203 120.323 40.6574 120.298 40.6897C120.279 40.7152 120.256 40.7366 120.229 40.7526C120.201 40.7686 120.171 40.7789 120.14 40.7828C120.074 40.7866 120.008 40.7726 119.95 40.7423C119.801 40.6511 119.64 40.5803 119.472 40.532C119.296 40.4782 119.114 40.4509 118.93 40.451C118.679 40.4494 118.43 40.4961 118.197 40.5886C117.978 40.6798 117.782 40.8179 117.622 40.9932C117.457 41.1656 117.328 41.3691 117.242 41.592C117.151 41.8351 117.105 42.093 117.108 42.3526C117.101 42.6291 117.149 42.9042 117.25 43.1618C117.341 43.3875 117.479 43.5915 117.655 43.7606C117.812 43.9082 117.996 44.0237 118.197 44.1004C118.426 44.188 118.669 44.2319 118.914 44.2299C119.094 44.2311 119.275 44.2052 119.448 44.153C119.618 44.1043 119.78 44.0321 119.93 43.9386C119.987 43.9062 120.055 43.8948 120.12 43.9062C120.152 43.9096 120.183 43.9196 120.211 43.9357C120.238 43.9517 120.263 43.9734 120.282 43.9993C120.308 44.0302 120.328 44.0664 120.339 44.1055C120.35 44.1446 120.353 44.1857 120.346 44.2259C120.339 44.2638 120.324 44.2996 120.301 44.3305C120.277 44.3614 120.247 44.3865 120.213 44.4039C120.09 44.4763 119.961 44.5386 119.828 44.59C119.681 44.6446 119.529 44.6865 119.375 44.7154C119.223 44.7476 119.069 44.7638 118.914 44.764C118.598 44.7658 118.285 44.7082 117.991 44.5941C117.706 44.4833 117.445 44.3199 117.222 44.1126C116.995 43.8966 116.816 43.6344 116.699 43.3439C116.451 42.7064 116.451 41.9989 116.699 41.3614C116.816 41.0746 116.988 40.8135 117.205 40.5926C117.425 40.3764 117.685 40.2058 117.97 40.0909C118.272 39.967 118.596 39.9051 118.922 39.9089C119.153 39.9092 119.383 39.9405 119.606 40.0019C119.824 40.0618 120.031 40.1546 120.221 40.2771Z" fill="#1C3D9E"/>
<path d="M125.439 42.3364C125.442 42.6651 125.384 42.9916 125.269 43.2994C125.161 43.5866 124.999 43.8504 124.791 44.0762C124.588 44.296 124.341 44.471 124.066 44.59C123.64 44.7797 123.165 44.8321 122.707 44.7401C122.25 44.648 121.832 44.416 121.512 44.0762C121.303 43.8477 121.14 43.5812 121.031 43.2913C120.809 42.667 120.809 41.9856 121.031 41.3614C121.137 41.0758 121.298 40.8135 121.504 40.5886C121.828 40.255 122.245 40.0271 122.701 39.9347C123.157 39.8423 123.63 39.8897 124.058 40.0707C124.333 40.1912 124.58 40.3676 124.783 40.5886C124.991 40.8122 125.154 41.0749 125.261 41.3614C125.38 41.6725 125.44 42.0032 125.439 42.3364ZM124.852 42.3364C124.858 41.9973 124.783 41.6616 124.633 41.3573C124.499 41.0817 124.292 40.848 124.034 40.6817C123.768 40.5227 123.464 40.4388 123.154 40.4388C122.844 40.4388 122.539 40.5227 122.273 40.6817C122.016 40.8462 121.808 41.0786 121.674 41.3533C121.53 41.6596 121.455 41.9939 121.455 42.3324C121.455 42.6709 121.53 43.0052 121.674 43.3115C121.807 43.5881 122.014 43.8221 122.273 43.9872C122.539 44.1461 122.844 44.2301 123.154 44.2301C123.464 44.2301 123.768 44.1461 124.034 43.9872C124.292 43.8208 124.499 43.5872 124.633 43.3115C124.783 43.0087 124.858 42.6743 124.852 42.3364Z" fill="#1C3D9E"/>
<path d="M126.645 44.7033C126.563 44.7054 126.484 44.6765 126.422 44.6224C126.392 44.5998 126.368 44.5704 126.351 44.5367C126.334 44.503 126.325 44.4658 126.325 44.4282V40.2447C126.325 40.2079 126.332 40.1714 126.346 40.1374C126.359 40.1033 126.38 40.0724 126.406 40.0464C126.459 39.9946 126.53 39.9655 126.604 39.9655H128.475C128.714 39.9615 128.95 40.0216 129.159 40.1395C129.361 40.2518 129.529 40.4168 129.644 40.6169C129.764 40.8262 129.826 41.0637 129.822 41.3047C129.824 41.4884 129.787 41.6703 129.713 41.8388C129.643 41.9992 129.543 42.1448 129.418 42.2676C129.292 42.3871 129.143 42.4794 128.981 42.5387L128.835 42.4376C128.982 42.4694 129.12 42.5329 129.24 42.6237C129.362 42.7187 129.463 42.8387 129.535 42.9757C129.615 43.1294 129.657 43.3001 129.657 43.4733C129.657 43.6392 129.677 43.7727 129.693 43.8779C129.7 43.959 129.72 44.0383 129.754 44.1126C129.779 44.1663 129.818 44.2124 129.867 44.2461C129.928 44.2819 129.973 44.3399 129.992 44.4079C130.002 44.4415 130.004 44.477 129.998 44.5114C129.992 44.5459 129.977 44.5783 129.956 44.6062C129.93 44.6485 129.89 44.6801 129.843 44.6952C129.793 44.707 129.742 44.707 129.693 44.6952C129.645 44.691 129.598 44.6772 129.555 44.6547C129.479 44.6038 129.409 44.5425 129.349 44.4727C129.268 44.373 129.21 44.2571 129.179 44.1328C129.133 43.9326 129.112 43.7273 129.118 43.5219C129.121 43.3992 129.096 43.2775 129.045 43.1658C129.003 43.0763 128.94 42.9974 128.863 42.9352C128.787 42.8781 128.7 42.8368 128.608 42.8138C128.513 42.7893 128.415 42.7771 128.317 42.7774H126.807L126.888 42.6641V44.4241C126.889 44.4951 126.865 44.5641 126.819 44.6183C126.799 44.6451 126.772 44.6668 126.742 44.6816C126.712 44.6963 126.679 44.7038 126.645 44.7033ZM126.815 42.296H128.475C128.607 42.2837 128.735 42.2362 128.843 42.1584C128.965 42.0713 129.063 41.9542 129.126 41.8185C129.198 41.6627 129.234 41.4926 129.232 41.3209C129.235 41.2123 129.217 41.104 129.178 41.0025C129.139 40.901 129.08 40.8084 129.005 40.7302C128.933 40.6531 128.846 40.592 128.749 40.5508C128.652 40.5097 128.547 40.4895 128.442 40.4915H126.843L126.896 40.358V42.4173L126.815 42.296Z" fill="#1C3D9E"/>
<path d="M131.223 44.7033C131.141 44.7054 131.062 44.6765 131 44.6224C130.971 44.5995 130.947 44.5701 130.931 44.5364C130.915 44.5026 130.907 44.4656 130.907 44.4282V40.2447C130.906 40.2078 130.912 40.171 130.926 40.1368C130.94 40.1026 130.961 40.0718 130.988 40.0464C131.013 40.0205 131.044 40 131.077 39.986C131.111 39.9721 131.146 39.9652 131.183 39.9655H133.053C133.292 39.9615 133.528 40.0216 133.737 40.1395C133.939 40.2518 134.107 40.4168 134.222 40.6169C134.342 40.8262 134.404 41.0637 134.401 41.3047C134.402 41.4884 134.365 41.6703 134.291 41.8388C134.221 41.9992 134.121 42.1448 133.996 42.2676C133.871 42.3862 133.724 42.4784 133.563 42.5387L133.413 42.4376C133.56 42.4686 133.698 42.5322 133.818 42.6237C133.94 42.7187 134.041 42.8387 134.113 42.9757C134.193 43.1297 134.236 43.3 134.239 43.4733C134.239 43.6392 134.259 43.7727 134.271 43.8779C134.278 43.959 134.298 44.0383 134.332 44.1126C134.357 44.1663 134.396 44.2124 134.445 44.2461C134.506 44.2819 134.551 44.3399 134.571 44.4079C134.581 44.4415 134.582 44.477 134.576 44.5114C134.57 44.5459 134.555 44.5783 134.534 44.6062C134.508 44.6485 134.468 44.6801 134.421 44.6952C134.372 44.707 134.32 44.707 134.271 44.6952C134.223 44.69 134.177 44.6763 134.133 44.6547C134.057 44.6038 133.987 44.5425 133.927 44.4727C133.846 44.3736 133.79 44.2573 133.761 44.1328C133.711 43.9331 133.69 43.7275 133.696 43.5219C133.699 43.3992 133.674 43.2775 133.623 43.1658C133.581 43.0763 133.519 42.9974 133.441 42.9352C133.366 42.8773 133.279 42.8359 133.186 42.8138C133.091 42.7893 132.993 42.7771 132.895 42.7774H131.393L131.474 42.6641V44.4241C131.478 44.4954 131.453 44.5652 131.405 44.6183C131.384 44.6463 131.356 44.6686 131.325 44.6834C131.293 44.6983 131.258 44.7051 131.223 44.7033ZM131.393 42.296H133.053C133.186 42.2837 133.313 42.2362 133.421 42.1584C133.543 42.0713 133.641 41.9542 133.704 41.8185C133.776 41.6627 133.812 41.4926 133.81 41.3209C133.813 41.2123 133.795 41.104 133.756 41.0025C133.717 40.901 133.658 40.8084 133.583 40.7302C133.511 40.6531 133.424 40.592 133.327 40.5508C133.23 40.5097 133.126 40.4895 133.02 40.4915H131.421L131.474 40.358V42.4173L131.393 42.296Z" fill="#1C3D9E"/>
<path d="M135.761 39.9655H138.189C138.263 39.964 138.334 39.9916 138.388 40.0424C138.414 40.0676 138.434 40.0978 138.448 40.1312C138.462 40.1646 138.469 40.2004 138.469 40.2366C138.469 40.2716 138.463 40.3064 138.449 40.3385C138.435 40.3707 138.414 40.3994 138.388 40.4227C138.332 40.4695 138.262 40.494 138.189 40.4915H136.008L136.068 40.3782V42.0775L136.004 42.0006H137.886C137.922 41.9995 137.957 42.0057 137.991 42.019C138.024 42.0322 138.055 42.0521 138.08 42.0775C138.108 42.1015 138.129 42.1315 138.143 42.1652C138.157 42.1989 138.163 42.2353 138.161 42.2717C138.163 42.3069 138.157 42.3422 138.143 42.3745C138.129 42.4069 138.107 42.4354 138.08 42.4578C138.027 42.5065 137.958 42.5326 137.886 42.5306H136.008L136.052 42.4619V44.2137L136.012 44.1692H138.173C138.21 44.1683 138.247 44.175 138.281 44.189C138.315 44.2029 138.346 44.2237 138.372 44.2502C138.397 44.274 138.417 44.3028 138.431 44.3348C138.445 44.3668 138.452 44.4014 138.452 44.4363C138.452 44.4712 138.445 44.5057 138.431 44.5377C138.417 44.5697 138.397 44.5985 138.372 44.6224C138.317 44.6706 138.246 44.6966 138.173 44.6952H135.744C135.671 44.6952 135.601 44.6662 135.55 44.6146C135.498 44.563 135.469 44.4931 135.469 44.4201V40.2447C135.468 40.2078 135.474 40.171 135.488 40.1368C135.502 40.1026 135.523 40.0718 135.55 40.0465C135.577 40.0184 135.61 39.9967 135.646 39.9827C135.683 39.9687 135.722 39.9629 135.761 39.9655Z" fill="#1C3D9E"/>
<path d="M139.246 40.4874C139.21 40.4886 139.174 40.4823 139.141 40.4691C139.107 40.4559 139.077 40.436 139.052 40.4106C139.024 40.3874 139.003 40.3581 138.989 40.3251C138.975 40.2921 138.968 40.2562 138.971 40.2204C138.969 40.1853 138.976 40.1504 138.99 40.1182C139.004 40.0859 139.025 40.0573 139.052 40.0343C139.106 39.9885 139.175 39.964 139.246 39.9655H142.395C142.468 39.9641 142.539 39.9901 142.593 40.0383C142.619 40.0626 142.64 40.0921 142.654 40.1249C142.668 40.1576 142.675 40.1929 142.674 40.2285C142.676 40.2636 142.669 40.2985 142.655 40.3308C142.641 40.363 142.62 40.3916 142.593 40.4146C142.539 40.4628 142.468 40.4888 142.395 40.4874H139.246ZM140.816 44.7033C140.778 44.7054 140.74 44.6992 140.704 44.6852C140.669 44.6713 140.637 44.6498 140.61 44.6224C140.56 44.57 140.533 44.5004 140.533 44.4282V40.2487H141.108V44.4282C141.109 44.4645 141.103 44.5006 141.089 44.5342C141.075 44.5677 141.054 44.5978 141.027 44.6224C141 44.6498 140.968 44.6713 140.933 44.6852C140.897 44.6992 140.859 44.7054 140.821 44.7033H140.816Z" fill="#1C3D9E"/>
<path d="M147.629 42.3364C147.632 42.6651 147.575 42.9916 147.459 43.2994C147.351 43.5866 147.189 43.8504 146.981 44.0762C146.778 44.296 146.531 44.471 146.257 44.59C145.967 44.7101 145.657 44.7719 145.344 44.7719C145.031 44.7719 144.72 44.7101 144.431 44.59C144.156 44.4701 143.908 44.2952 143.703 44.0762C143.497 43.8494 143.336 43.5858 143.229 43.2994C143.008 42.6751 143.008 41.9937 143.229 41.3695C143.336 41.0839 143.497 40.8216 143.703 40.5967C143.911 40.3712 144.165 40.1923 144.447 40.0717C144.73 39.9511 145.035 39.8915 145.342 39.8967C145.656 39.8929 145.968 39.9549 146.257 40.0788C146.532 40.1993 146.778 40.3757 146.981 40.5967C147.19 40.8203 147.352 41.083 147.459 41.3695C147.575 41.6786 147.632 42.0064 147.629 42.3364ZM147.042 42.3364C147.048 41.9973 146.973 41.6616 146.823 41.3573C146.689 41.0817 146.482 40.848 146.224 40.6817C145.958 40.5227 145.654 40.4387 145.344 40.4387C145.034 40.4387 144.73 40.5227 144.464 40.6817C144.207 40.8473 144 41.0794 143.864 41.3533C143.72 41.6596 143.646 41.9939 143.646 42.3324C143.646 42.6709 143.72 43.0052 143.864 43.3115C143.999 43.5872 144.206 43.8208 144.464 43.9872C144.73 44.1461 145.034 44.2301 145.344 44.2301C145.654 44.2301 145.958 44.1461 146.224 43.9872C146.482 43.8208 146.689 43.5872 146.823 43.3115C146.973 43.0087 147.048 42.6743 147.042 42.3364Z" fill="#1C3D9E"/>
<path d="M148.835 44.7033C148.753 44.7062 148.673 44.6772 148.613 44.6224C148.582 44.5998 148.558 44.5704 148.541 44.5367C148.524 44.503 148.515 44.4658 148.515 44.4282V40.2447C148.515 40.2079 148.522 40.1714 148.536 40.1374C148.55 40.1033 148.57 40.0724 148.596 40.0464C148.649 39.9946 148.721 39.9655 148.795 39.9655H150.665C150.904 39.9615 151.14 40.0216 151.349 40.1395C151.551 40.2518 151.719 40.4168 151.835 40.6169C151.954 40.8262 152.016 41.0637 152.013 41.3047C152.014 41.4843 151.979 41.6624 151.91 41.8279C151.84 41.9935 151.738 42.1431 151.608 42.2676C151.484 42.387 151.336 42.4793 151.175 42.5387L151.029 42.4376C151.176 42.4703 151.314 42.5337 151.434 42.6237C151.556 42.7187 151.657 42.8387 151.729 42.9757C151.809 43.1294 151.851 43.3001 151.851 43.4733C151.851 43.6392 151.871 43.7727 151.887 43.8779C151.894 43.959 151.915 44.0383 151.948 44.1126C151.972 44.1672 152.011 44.2137 152.061 44.2461C152.122 44.2819 152.167 44.3399 152.187 44.4079C152.197 44.4415 152.199 44.477 152.192 44.5114C152.186 44.5459 152.172 44.5783 152.15 44.6062C152.124 44.6495 152.082 44.6813 152.033 44.6952C151.985 44.7072 151.935 44.7072 151.887 44.6952C151.839 44.691 151.792 44.6772 151.75 44.6547C151.671 44.6059 151.601 44.5444 151.543 44.4727C151.463 44.373 151.405 44.257 151.373 44.1328C151.326 43.9328 151.304 43.7274 151.308 43.5219C151.313 43.3995 151.289 43.2778 151.24 43.1658C151.197 43.0762 151.135 42.9974 151.057 42.9352C150.981 42.8788 150.894 42.8376 150.802 42.8138C150.707 42.7893 150.609 42.7771 150.511 42.7774H149.001L149.082 42.6641V44.4241C149.084 44.4951 149.059 44.5641 149.013 44.6183C148.993 44.6457 148.966 44.6677 148.935 44.6825C148.904 44.6973 148.87 44.7044 148.835 44.7033ZM149.005 42.296H150.665C150.798 42.2837 150.925 42.2362 151.033 42.1584C151.154 42.071 151.25 41.954 151.313 41.8185C151.388 41.6637 151.425 41.4931 151.422 41.3209C151.426 41.2123 151.408 41.104 151.369 41.0025C151.33 40.901 151.271 40.8084 151.195 40.7302C151.123 40.6528 151.035 40.5915 150.937 40.5504C150.84 40.5092 150.734 40.4892 150.628 40.4915H149.034L149.086 40.358V42.4173L149.005 42.296Z" fill="#1C3D9E"/>
<path d="M154.741 40.6695L153.15 44.5414C153.134 44.5948 153.102 44.6416 153.057 44.675C153.015 44.706 152.964 44.723 152.911 44.7235C152.877 44.7261 152.843 44.7212 152.811 44.7094C152.779 44.6975 152.749 44.6789 152.725 44.6547C152.685 44.6082 152.661 44.5501 152.656 44.4889C152.653 44.4552 152.653 44.4213 152.656 44.3877L154.413 40.1274C154.433 40.0695 154.471 40.0197 154.522 39.9857C154.57 39.9542 154.627 39.9399 154.684 39.9453C154.741 39.9452 154.796 39.9621 154.842 39.9938C154.891 40.0239 154.926 40.0719 154.939 40.1274L156.688 44.3472C156.7 44.381 156.707 44.4165 156.708 44.4524C156.71 44.4894 156.704 44.5262 156.69 44.5605C156.676 44.5947 156.654 44.6255 156.627 44.6507C156.578 44.6965 156.513 44.7224 156.445 44.7235C156.389 44.7247 156.333 44.7077 156.287 44.675C156.243 44.6382 156.208 44.5909 156.186 44.5374L154.567 40.6614L154.741 40.6695ZM153.49 43.4369L153.721 42.9109H155.745L155.846 43.4369H153.49Z" fill="#1C3D9E"/>
<path d="M161.286 39.9655C161.588 39.9583 161.888 40.0221 162.161 40.1516C162.408 40.2721 162.623 40.4496 162.788 40.6695C162.958 40.8986 163.085 41.1562 163.165 41.4301C163.25 41.7246 163.292 42.0299 163.29 42.3364C163.299 42.7519 163.223 43.1648 163.067 43.5502C162.93 43.8933 162.699 44.1906 162.4 44.4079C162.071 44.6278 161.681 44.7383 161.286 44.7235H159.598C159.562 44.724 159.526 44.7173 159.492 44.7037C159.458 44.6901 159.427 44.67 159.401 44.6444C159.375 44.6188 159.355 44.5883 159.34 44.5546C159.326 44.521 159.319 44.4849 159.319 44.4484V40.2447C159.319 40.2079 159.326 40.1714 159.34 40.1374C159.353 40.1033 159.374 40.0724 159.4 40.0464C159.453 39.9946 159.524 39.9655 159.598 39.9655H161.286ZM161.218 44.1773C161.522 44.1909 161.823 44.1026 162.072 43.9265C162.292 43.753 162.458 43.5199 162.549 43.2548C162.652 42.9598 162.703 42.6489 162.699 42.3364C162.7 42.1005 162.671 41.8653 162.614 41.6365C162.565 41.4258 162.476 41.2267 162.351 41.0498C162.233 40.8787 162.075 40.7397 161.89 40.6452C161.681 40.5415 161.45 40.4901 161.218 40.4955H159.837L159.89 40.4348V44.2501L159.849 44.1814L161.218 44.1773Z" fill="#1C3D9E"/>
<path d="M164.456 39.9655H166.885C166.92 39.9644 166.956 39.9706 166.99 39.9839C167.023 39.9971 167.053 40.017 167.079 40.0424C167.105 40.0676 167.125 40.0978 167.139 40.1312C167.153 40.1646 167.16 40.2004 167.16 40.2366C167.161 40.2716 167.154 40.3064 167.14 40.3385C167.126 40.3706 167.105 40.3994 167.079 40.4227C167.026 40.4703 166.956 40.495 166.885 40.4915H164.703L164.763 40.3782V42.0775L164.695 42.0006H166.577C166.651 41.9991 166.722 42.0267 166.775 42.0775C166.802 42.1022 166.823 42.1324 166.837 42.1659C166.851 42.1993 166.857 42.2354 166.856 42.2717C166.858 42.3068 166.851 42.3417 166.837 42.374C166.823 42.4062 166.802 42.4348 166.775 42.4578C166.721 42.506 166.65 42.532 166.577 42.5306H164.715L164.747 42.4821V44.234L164.707 44.1895H166.868C166.922 44.1868 166.975 44.2007 167.021 44.2291C167.066 44.2575 167.102 44.2992 167.123 44.3485C167.144 44.3979 167.15 44.4525 167.139 44.505C167.128 44.5576 167.102 44.6056 167.063 44.6426C167.01 44.6913 166.94 44.7174 166.868 44.7154H164.44C164.403 44.716 164.367 44.7093 164.333 44.6957C164.299 44.6821 164.268 44.6619 164.242 44.6363C164.216 44.6107 164.196 44.5802 164.182 44.5465C164.168 44.5129 164.16 44.4768 164.16 44.4403V40.2447C164.16 40.2079 164.167 40.1714 164.181 40.1374C164.195 40.1033 164.215 40.0724 164.241 40.0464C164.269 40.0188 164.303 39.9973 164.34 39.9833C164.377 39.9694 164.416 39.9633 164.456 39.9655Z" fill="#1C3D9E"/>
<path d="M171.289 44.7721C170.989 44.7787 170.691 44.7279 170.41 44.6224C170.138 44.5136 169.889 44.3528 169.678 44.149C169.645 44.1208 169.619 44.0864 169.601 44.0479C169.58 44.0078 169.569 43.9635 169.568 43.9184C169.568 43.8475 169.596 43.7793 169.645 43.7282C169.67 43.701 169.7 43.6793 169.733 43.6646C169.767 43.6499 169.803 43.6427 169.839 43.6433C169.871 43.6433 169.903 43.6497 169.932 43.6622C169.961 43.6748 169.988 43.6931 170.01 43.7161C170.175 43.8831 170.368 44.02 170.58 44.1207C170.8 44.214 171.037 44.2608 171.276 44.2582C171.459 44.2611 171.641 44.2282 171.811 44.1611C171.957 44.1054 172.088 44.0152 172.191 43.8982C172.287 43.7854 172.337 43.6413 172.333 43.4936C172.339 43.33 172.284 43.1701 172.179 43.0445C172.068 42.9184 171.929 42.8189 171.774 42.7532C171.573 42.6707 171.366 42.6031 171.155 42.5509C170.959 42.506 170.767 42.4465 170.58 42.3729C170.417 42.309 170.264 42.2203 170.127 42.1099C169.998 41.9994 169.895 41.861 169.827 41.7053C169.754 41.5355 169.718 41.352 169.722 41.1672C169.717 40.927 169.789 40.6915 169.929 40.4955C170.069 40.302 170.259 40.1498 170.479 40.0545C170.735 39.9467 171.011 39.8916 171.289 39.8927C171.557 39.8906 171.823 39.9372 172.074 40.0303C172.297 40.107 172.499 40.2344 172.665 40.4025C172.703 40.4335 172.735 40.4722 172.758 40.516C172.781 40.5599 172.795 40.608 172.798 40.6574C172.798 40.6916 172.791 40.7255 172.777 40.7568C172.763 40.7881 172.743 40.8162 172.718 40.8395C172.693 40.8661 172.663 40.8874 172.629 40.902C172.596 40.9166 172.56 40.9243 172.523 40.9244C172.473 40.9245 172.425 40.9073 172.386 40.8759C172.301 40.7845 172.203 40.7067 172.094 40.6452C171.966 40.5754 171.83 40.521 171.689 40.4834C171.558 40.4444 171.422 40.4239 171.285 40.4227C171.099 40.4187 170.913 40.4488 170.738 40.5117C170.594 40.5615 170.467 40.6497 170.37 40.7666C170.277 40.8806 170.23 41.0245 170.236 41.1712C170.23 41.3267 170.284 41.4787 170.386 41.596C170.499 41.7153 170.637 41.8079 170.791 41.8671C170.972 41.9401 171.157 42.0022 171.345 42.0532C171.553 42.1014 171.757 42.1636 171.957 42.2393C172.13 42.3009 172.294 42.3882 172.442 42.4983C172.578 42.6061 172.687 42.7448 172.758 42.9029C172.836 43.0898 172.873 43.2911 172.867 43.4936C172.872 43.7318 172.798 43.9649 172.657 44.1571C172.511 44.3584 172.314 44.5175 172.086 44.6183C171.834 44.7262 171.562 44.7787 171.289 44.7721Z" fill="#1C3D9E"/>
<path d="M174.057 39.9655H176.486C176.56 39.964 176.631 39.9916 176.684 40.0424C176.71 40.0676 176.731 40.0978 176.745 40.1312C176.759 40.1646 176.766 40.2004 176.765 40.2366C176.766 40.2716 176.759 40.3064 176.745 40.3385C176.731 40.3706 176.711 40.3994 176.684 40.4227C176.629 40.4695 176.558 40.494 176.486 40.4915H174.304L174.365 40.3782V42.0775L174.3 42.0006H176.182C176.218 41.9995 176.254 42.0057 176.288 42.0189C176.321 42.0322 176.351 42.0521 176.377 42.0775C176.404 42.1015 176.426 42.1315 176.44 42.1652C176.454 42.1989 176.46 42.2353 176.458 42.2717C176.46 42.3069 176.454 42.3421 176.44 42.3745C176.426 42.4069 176.404 42.4354 176.377 42.4578C176.324 42.5065 176.254 42.5326 176.182 42.5306H174.32L174.365 42.4618V44.2137L174.325 44.1692H176.486C176.523 44.1683 176.56 44.175 176.594 44.1889C176.628 44.2029 176.659 44.2237 176.684 44.2501C176.71 44.274 176.73 44.3028 176.744 44.3348C176.758 44.3668 176.765 44.4014 176.765 44.4362C176.765 44.4711 176.758 44.5057 176.744 44.5377C176.73 44.5697 176.71 44.5985 176.684 44.6224C176.63 44.6706 176.559 44.6966 176.486 44.6952H174.057C173.984 44.6952 173.914 44.6662 173.863 44.6146C173.811 44.563 173.782 44.493 173.782 44.4201V40.2447C173.781 40.2078 173.787 40.171 173.801 40.1368C173.815 40.1026 173.836 40.0718 173.863 40.0464C173.888 40.0205 173.918 40 173.952 39.986C173.985 39.9721 174.021 39.9651 174.057 39.9655Z" fill="#1C3D9E"/>
<path d="M179.817 44.7721C179.486 44.7761 179.157 44.7128 178.85 44.586C178.558 44.4664 178.293 44.2904 178.069 44.0681C177.847 43.8451 177.671 43.5813 177.551 43.2913C177.361 42.8418 177.31 42.3464 177.402 41.8675C177.494 41.3887 177.726 40.9479 178.069 40.6007C178.294 40.3797 178.559 40.2039 178.85 40.0829C179.157 39.958 179.486 39.8947 179.817 39.8967C180.042 39.8974 180.266 39.9232 180.485 39.9736C180.69 40.0219 180.886 40.104 181.064 40.2164C181.108 40.2365 181.143 40.2707 181.165 40.3135C181.187 40.3517 181.198 40.395 181.198 40.4389C181.199 40.5125 181.172 40.5838 181.121 40.6371C181.098 40.6622 181.071 40.6824 181.04 40.6963C181.01 40.7103 180.976 40.7177 180.943 40.7181C180.916 40.722 180.889 40.722 180.862 40.7181L180.785 40.6897C180.64 40.6155 180.488 40.5572 180.332 40.5158C180.164 40.4711 179.991 40.4493 179.817 40.451C179.481 40.4464 179.149 40.5331 178.858 40.7019C178.58 40.8654 178.351 41.1001 178.194 41.3816C178.033 41.6778 177.949 42.0095 177.949 42.3465C177.949 42.6836 178.033 43.0153 178.194 43.3115C178.354 43.5988 178.59 43.8372 178.875 44.0011C179.16 44.1651 179.484 44.2483 179.813 44.2421C180.178 44.2395 180.536 44.1493 180.858 43.9791L180.817 44.1409V42.7208L180.918 42.8138H179.89C179.854 42.8151 179.817 42.8089 179.783 42.7957C179.749 42.7825 179.718 42.7625 179.692 42.737C179.665 42.7109 179.643 42.6795 179.628 42.6447C179.613 42.61 179.605 42.5725 179.605 42.5347C179.605 42.4968 179.613 42.4594 179.628 42.4246C179.643 42.3898 179.665 42.3585 179.692 42.3324C179.718 42.3069 179.749 42.2869 179.783 42.2737C179.817 42.2605 179.854 42.2543 179.89 42.2555H181.105C181.141 42.2541 181.177 42.2607 181.211 42.2746C181.244 42.2886 181.274 42.3097 181.299 42.3364C181.324 42.3618 181.344 42.3922 181.358 42.4256C181.371 42.459 181.377 42.4947 181.376 42.5306V44.1005C181.376 44.1513 181.364 44.2014 181.339 44.2461C181.315 44.2876 181.282 44.3234 181.242 44.3513C181.031 44.4841 180.804 44.5888 180.566 44.6628C180.323 44.7361 180.071 44.7729 179.817 44.7721Z" fill="#1C3D9E"/>
<path d="M185.719 39.9574C185.755 39.9563 185.792 39.9629 185.825 39.9769C185.859 39.9909 185.889 40.0118 185.913 40.0383C185.963 40.0926 185.99 40.1632 185.99 40.2366V42.9231C185.99 43.4059 185.798 43.869 185.457 44.2105C185.115 44.5519 184.652 44.7437 184.169 44.7437C183.686 44.7437 183.222 44.5519 182.881 44.2105C182.539 43.869 182.347 43.4059 182.347 42.9231V40.2366C182.346 40.1997 182.353 40.1631 182.367 40.129C182.381 40.0949 182.402 40.064 182.428 40.0383C182.456 40.0112 182.489 39.99 182.525 39.976C182.561 39.9621 182.6 39.9558 182.639 39.9574C182.71 39.9591 182.778 39.988 182.829 40.0383C182.856 40.0638 182.877 40.0945 182.892 40.1286C182.907 40.1627 182.914 40.1995 182.914 40.2366V42.9231C182.91 43.1555 182.968 43.3848 183.084 43.5866C183.193 43.7768 183.351 43.9346 183.541 44.0438C183.729 44.1535 183.943 44.2108 184.161 44.2097C184.386 44.2115 184.608 44.1543 184.804 44.0438C185.002 43.9313 185.166 43.7681 185.279 43.571C185.392 43.374 185.45 43.1503 185.448 42.9231V40.2366C185.447 40.1637 185.473 40.093 185.521 40.0383C185.545 40.0101 185.576 39.988 185.61 39.9739C185.645 39.9599 185.682 39.9542 185.719 39.9574Z" fill="#1C3D9E"/>
<path d="M187.484 44.7033C187.402 44.7054 187.323 44.6765 187.261 44.6224C187.232 44.5989 187.209 44.5693 187.193 44.5358C187.177 44.5022 187.168 44.4654 187.168 44.4282V40.2447C187.167 40.2078 187.173 40.171 187.187 40.1368C187.201 40.1026 187.222 40.0718 187.249 40.0464C187.274 40.0205 187.305 40 187.338 39.986C187.372 39.9721 187.407 39.9651 187.444 39.9655H189.314C189.553 39.9609 189.79 40.021 189.998 40.1395C190.2 40.2518 190.368 40.4168 190.484 40.6169C190.603 40.8262 190.665 41.0637 190.662 41.3047C190.662 41.4842 190.627 41.6619 190.557 41.8274C190.488 41.9928 190.386 42.1426 190.257 42.2676C190.133 42.387 189.985 42.4793 189.824 42.5387L189.674 42.4376C189.821 42.4686 189.959 42.5322 190.079 42.6237C190.202 42.7185 190.304 42.8385 190.378 42.9757C190.456 43.1301 190.498 43.3003 190.5 43.4733C190.5 43.6392 190.52 43.7727 190.532 43.8779C190.539 43.959 190.56 44.0383 190.593 44.1126C190.618 44.1674 190.659 44.2137 190.71 44.2461C190.769 44.2844 190.813 44.3414 190.836 44.4079C190.845 44.4418 190.846 44.4775 190.839 44.5119C190.832 44.5464 190.817 44.5787 190.795 44.6062C190.77 44.6493 190.73 44.6811 190.682 44.6952C190.633 44.7072 190.581 44.7072 190.532 44.6952C190.485 44.6903 190.44 44.6766 190.399 44.6547C190.32 44.6059 190.25 44.5444 190.192 44.4727C190.108 44.375 190.05 44.2583 190.022 44.1328C189.972 43.9331 189.951 43.7275 189.957 43.5219C189.96 43.3992 189.935 43.2775 189.884 43.1658C189.843 43.0754 189.781 42.9962 189.702 42.9352C189.627 42.8773 189.54 42.8359 189.447 42.8138C189.352 42.7893 189.254 42.7771 189.156 42.7774H187.646L187.727 42.6641V44.4241C187.73 44.4946 187.707 44.5637 187.662 44.6183C187.641 44.6448 187.613 44.6661 187.583 44.6808C187.552 44.6955 187.518 44.7032 187.484 44.7033ZM187.654 42.296H189.314C189.447 42.2845 189.574 42.2369 189.682 42.1584C189.804 42.0713 189.902 41.9542 189.965 41.8185C190.041 41.6637 190.078 41.4931 190.075 41.3209C190.079 41.2123 190.06 41.104 190.021 41.0025C189.983 40.901 189.924 40.8084 189.848 40.7302C189.776 40.653 189.688 40.5918 189.59 40.5507C189.492 40.5096 189.387 40.4894 189.281 40.4915H187.682L187.735 40.358V42.4173L187.654 42.296Z" fill="#1C3D9E"/>
<path d="M195.96 42.3364C195.964 42.6651 195.906 42.9916 195.79 43.2994C195.683 43.5866 195.52 43.8504 195.313 44.0762C195.108 44.2943 194.862 44.469 194.588 44.59C194.298 44.7102 193.987 44.7721 193.673 44.7721C193.359 44.7721 193.048 44.7102 192.758 44.59C192.484 44.47 192.238 44.2951 192.034 44.0762C191.826 43.8512 191.665 43.5872 191.56 43.2994C191.339 42.6751 191.339 41.9937 191.56 41.3695C191.664 41.0824 191.825 40.8195 192.034 40.5967C192.238 40.3765 192.484 40.2003 192.758 40.0788C193.185 39.8878 193.661 39.835 194.119 39.9279C194.577 40.0208 194.994 40.2546 195.313 40.5967C195.521 40.8203 195.683 41.083 195.79 41.3695C195.906 41.6786 195.964 42.0064 195.96 42.3364ZM195.369 42.3364C195.375 41.9978 195.301 41.6626 195.155 41.3573C195.02 41.0817 194.813 40.848 194.556 40.6817C194.29 40.5168 193.982 40.4325 193.669 40.4389C193.359 40.4341 193.054 40.5183 192.791 40.6817C192.534 40.8474 192.327 41.0794 192.192 41.3533C192.05 41.6604 191.977 41.9944 191.977 42.3324C191.977 42.6704 192.05 43.0044 192.192 43.3115C192.326 43.5872 192.533 43.8208 192.791 43.9872C193.054 44.1505 193.359 44.2347 193.669 44.2299C193.982 44.2363 194.29 44.152 194.556 43.9872C194.813 43.8208 195.02 43.5872 195.155 43.3115C195.301 43.0077 195.375 42.6737 195.369 42.3364Z" fill="#1C3D9E"/>
<path d="M198.235 44.7721C197.934 44.7786 197.635 44.7278 197.353 44.6224C197.082 44.5125 196.835 44.3518 196.624 44.149C196.591 44.1209 196.563 44.0866 196.543 44.0478C196.524 44.0075 196.514 43.9632 196.515 43.9184C196.514 43.8831 196.52 43.8481 196.534 43.8154C196.547 43.7827 196.567 43.753 196.592 43.7282C196.616 43.701 196.646 43.6793 196.68 43.6646C196.713 43.6499 196.749 43.6427 196.786 43.6433C196.85 43.6446 196.911 43.6707 196.956 43.7161C197.119 43.8852 197.313 44.0224 197.527 44.1207C197.747 44.2139 197.984 44.2608 198.223 44.2582C198.406 44.2611 198.587 44.2281 198.757 44.1611C198.903 44.1054 199.034 44.0152 199.138 43.8981C199.233 43.7854 199.284 43.6413 199.279 43.4936C199.285 43.33 199.231 43.1701 199.126 43.0445C199.014 42.9188 198.876 42.8194 198.721 42.7532C198.52 42.6701 198.313 42.6025 198.102 42.5509C197.907 42.5054 197.716 42.4459 197.531 42.3728C197.367 42.3099 197.214 42.2211 197.077 42.1099C196.947 42.0004 196.844 41.8618 196.778 41.7053C196.705 41.5355 196.669 41.352 196.673 41.1672C196.668 40.9276 196.739 40.6927 196.875 40.4955C197.019 40.2957 197.215 40.139 197.442 40.0424C197.698 39.9345 197.973 39.8795 198.251 39.8806C198.518 39.8785 198.783 39.9251 199.033 40.0181C199.257 40.0939 199.461 40.2214 199.628 40.3903C199.666 40.4214 199.698 40.46 199.721 40.5039C199.744 40.5477 199.758 40.5959 199.761 40.6452C199.76 40.6798 199.752 40.7137 199.737 40.745C199.723 40.7763 199.702 40.8043 199.676 40.8273C199.652 40.8535 199.622 40.8745 199.59 40.8891C199.557 40.9037 199.522 40.9116 199.486 40.9123C199.436 40.913 199.387 40.8958 199.348 40.8637C199.263 40.7715 199.163 40.6936 199.053 40.6331C198.932 40.5637 198.803 40.5094 198.668 40.4713C198.537 40.4322 198.401 40.4118 198.263 40.4106C198.076 40.4065 197.889 40.4366 197.713 40.4996C197.57 40.5504 197.443 40.6384 197.345 40.7545C197.253 40.8688 197.207 41.0129 197.215 41.1591C197.21 41.3137 197.262 41.4649 197.361 41.5839C197.475 41.7014 197.613 41.7937 197.766 41.855C197.947 41.9279 198.132 41.9901 198.32 42.0411C198.529 42.0887 198.735 42.1509 198.935 42.2272C199.109 42.2878 199.271 42.3752 199.417 42.4861C199.555 42.5916 199.664 42.731 199.733 42.8907C199.814 43.0767 199.853 43.2785 199.846 43.4814C199.851 43.7197 199.777 43.9528 199.636 44.1449C199.488 44.3445 199.291 44.5032 199.065 44.6062C198.804 44.7229 198.521 44.7796 198.235 44.7721Z" fill="#1C3D9E"/>
<path d="M51.2376 34.2244C50.5212 32.606 49.9423 30.1016 49.5132 26.6626C49.0987 23.4734 48.8851 20.2614 48.8737 17.0454C48.8469 15.2942 48.9824 13.5443 49.2785 11.8181C49.3415 11.3793 49.511 10.9626 49.7723 10.6043C49.9775 10.324 50.2583 10.1079 50.5819 9.98126C50.8388 9.87417 51.1132 9.8152 51.3914 9.80729C51.632 9.80469 51.8709 9.84723 52.0958 9.93271C52.2698 10.0136 52.367 10.1107 52.367 10.1876V10.22C52.367 10.2847 52.2698 10.3494 52.112 10.398C51.6465 10.8026 51.3024 11.6118 51.0717 12.7608C50.7274 14.799 50.5662 16.8639 50.59 18.9308C50.5865 21.6076 50.7528 24.2819 51.0879 26.9377C51.4076 29.5878 51.8084 31.457 52.2698 32.5453C52.367 32.7193 52.4763 32.8164 52.622 32.8164C53.132 32.8164 53.9497 32.0072 55.0831 30.3888C56.2165 28.7705 57.4794 26.703 58.8961 24.1865C60.3129 21.6699 61.7742 19.0441 63.2597 16.2605C64.7453 13.4769 66.1216 10.8754 67.3845 8.44786C68.4895 6.32376 69.4084 4.56379 70.1532 3.18818C70.5722 2.34827 71.0468 1.53728 71.574 0.760628C71.8201 0.551219 72.1178 0.411514 72.4362 0.356036C72.7763 0.266931 73.1251 0.215374 73.4765 0.202292C73.6862 0.196312 73.8958 0.218079 74.0999 0.267026C74.278 0.315577 74.3549 0.360082 74.3549 0.441001V0.473368L74.3103 0.554286C73.015 1.97575 71.4526 4.23337 69.6229 7.32714C67.7933 10.4209 65.8908 13.7925 63.9155 17.4419C62.7011 19.6591 61.1953 22.4589 58.7059 26.7475C57.4236 29.0329 55.9689 31.2173 54.3545 33.2817C54.0408 33.6536 53.694 33.9962 53.3182 34.3053C52.9899 34.6214 52.559 34.8094 52.1039 34.8353C51.9178 34.8209 51.7391 34.7565 51.5867 34.6489C51.4342 34.5414 51.3136 34.3947 51.2376 34.2244Z" fill="#1C3D9E" stroke="#1C3D9E" stroke-miterlimit="10"/>
<path d="M64.5915 30.227C64.2555 29.8588 64.0936 29.2519 64.0936 28.4225C64.1071 27.7712 64.1885 27.123 64.3365 26.4886C64.4909 25.7412 64.6937 25.0047 64.9436 24.2836C65.013 24.1171 65.1454 23.9847 65.312 23.9154C65.4929 23.8357 65.6892 23.797 65.8868 23.8021C66.0617 23.7983 66.2355 23.8314 66.3968 23.8992C66.4592 23.9258 66.5122 23.9705 66.549 24.0274C66.5858 24.0844 66.6047 24.151 66.6032 24.2188V24.2755V24.324C66.2612 25.1574 65.9903 26.0182 65.7937 26.8972C65.7054 27.3069 65.6579 27.7243 65.652 28.1434C65.6177 28.5523 65.7311 28.9599 65.9718 29.2924C66.0822 29.4145 66.2181 29.5107 66.3699 29.5743C66.5217 29.638 66.6857 29.6674 66.8502 29.6606C67.6962 29.6606 68.8457 29.1508 70.303 28.111C71.8848 26.9603 73.3564 25.6655 74.6989 24.2431C74.7952 24.1496 74.9184 24.0888 75.0511 24.0691C75.107 24.0678 75.162 24.0833 75.209 24.1136C75.2309 24.1342 75.2481 24.1594 75.2593 24.1874C75.2705 24.2153 75.2754 24.2454 75.2737 24.2755V24.324C75.2501 24.4154 75.201 24.4982 75.1321 24.5627C74.132 25.6806 73.0495 26.7219 71.8938 27.6781C70.8748 28.5395 69.7724 29.2971 68.6029 29.9397C67.7891 30.4327 66.8687 30.7228 65.9192 30.7853C65.6704 30.7954 65.4225 30.7505 65.1931 30.6541C64.9636 30.5576 64.7582 30.4118 64.5915 30.227ZM65.8382 22.3496C65.7095 22.2052 65.6414 22.0169 65.648 21.8236C65.6423 21.7536 65.6423 21.6833 65.648 21.6133C65.7045 21.36 65.839 21.1308 66.0325 20.9578C66.2472 20.7641 66.5287 20.6611 66.8178 20.6706C66.9231 20.6616 67.0292 20.6758 67.1285 20.7121C67.2278 20.7484 67.3179 20.8061 67.3926 20.8809C67.5184 21.0206 67.5864 21.2028 67.5828 21.3907L67.5504 21.6133C67.4979 21.857 67.3739 22.0795 67.1942 22.2525C67.0939 22.3533 66.9738 22.4323 66.8414 22.4846C66.7091 22.5368 66.5673 22.5611 66.4251 22.556C66.3181 22.5676 66.2098 22.5551 66.1082 22.5194C66.0067 22.4837 65.9144 22.4257 65.8382 22.3496Z" fill="#1C3D9E" stroke="#1C3D9E" stroke-miterlimit="10"/>
<path d="M74.201 28.5196C73.9545 28.324 73.7578 28.0728 73.6269 27.7866C73.4961 27.5004 73.4348 27.1873 73.4481 26.873C73.4462 26.6528 73.4679 26.433 73.5129 26.2175C73.7446 25.2669 74.2172 24.3919 74.8851 23.6767C75.5299 22.9069 76.3873 22.344 77.3503 22.0583C77.5898 21.9973 77.8357 21.9647 78.0829 21.9612C78.9492 21.9612 79.4106 22.3132 79.4754 23.001C79.4829 23.0696 79.4829 23.1388 79.4754 23.2074C79.3944 23.6403 79.0261 24.0732 78.3541 24.5182C77.3823 25.0758 76.3138 25.4451 75.2049 25.6066C75.1002 25.8489 75.0149 26.0992 74.9499 26.3551C74.9194 26.5083 74.9031 26.6641 74.9013 26.8204C74.887 27.0351 74.93 27.2499 75.026 27.4425C75.122 27.6352 75.2676 27.7989 75.4478 27.9168C75.903 28.1787 76.4253 28.3011 76.9495 28.2688C78.7044 28.15 80.4172 27.678 81.9851 26.881C83.5501 26.1049 85.0668 25.2348 86.5267 24.2755C86.6124 24.2185 86.7115 24.185 86.8141 24.1784C86.9003 24.1792 86.984 24.2076 87.053 24.2593C87.0833 24.2808 87.108 24.3093 87.1249 24.3425C87.1418 24.3756 87.1504 24.4123 87.1501 24.4494V24.498C87.118 24.6004 87.0487 24.687 86.9558 24.7408C85.1535 25.9155 83.2676 26.9567 81.3131 27.8561C79.8642 28.5739 78.2907 29.0066 76.6783 29.1306C75.5085 29.1306 74.6949 28.9161 74.201 28.5196ZM77.7955 24.1217C78.261 23.8507 78.5161 23.5958 78.5484 23.3894V23.3247C78.5484 23.1345 78.4027 23.0374 78.0991 23.0212C77.6989 23.0616 77.3151 23.2006 76.9819 23.4258C76.4074 23.8121 75.9127 24.3052 75.5247 24.8783C76.3167 24.7468 77.083 24.4915 77.7955 24.1217Z" fill="#1C3D9E" stroke="#1C3D9E" stroke-miterlimit="10"/>
<path d="M86.0936 30.227C85.7577 29.8588 85.5998 29.2519 85.5998 28.4225C85.6117 27.7713 85.6917 27.1231 85.8386 26.4886C85.9931 25.7412 86.1959 25.0047 86.4458 24.2836C86.5152 24.1171 86.6476 23.9847 86.8141 23.9154C86.9951 23.8361 87.1914 23.7974 87.3889 23.8021C87.5639 23.7983 87.7376 23.8314 87.899 23.8992C87.9618 23.9256 88.0153 23.9701 88.0528 24.027C88.0903 24.084 88.11 24.1507 88.1094 24.2188V24.2755V24.324C87.7674 25.1574 87.4965 26.0182 87.2999 26.8972C87.2136 27.3072 87.1662 27.7245 87.1582 28.1434C87.1239 28.5523 87.2373 28.9599 87.478 29.2924C87.5884 29.4145 87.7243 29.5107 87.8761 29.5743C88.0279 29.638 88.1919 29.6674 88.3564 29.6606C89.2024 29.6606 90.356 29.1508 91.8092 28.111C93.391 26.9603 94.8626 25.6655 96.2051 24.2431C96.3014 24.1496 96.4246 24.0888 96.5573 24.0691C96.6144 24.0684 96.6705 24.0839 96.7192 24.1136C96.7398 24.1351 96.7558 24.1605 96.7663 24.1883C96.7767 24.2161 96.7814 24.2458 96.7799 24.2755V24.324C96.7579 24.416 96.7085 24.4993 96.6383 24.5627C95.6382 25.6806 94.5557 26.7219 93.4 27.6781C92.3804 28.5406 91.2765 29.2983 90.105 29.9397C89.2951 30.4313 88.3789 30.7213 87.4335 30.7853C87.1828 30.7966 86.9327 30.7524 86.7011 30.6559C86.4695 30.5594 86.262 30.4129 86.0936 30.227ZM87.3404 22.3496C87.2117 22.2052 87.1436 22.0169 87.1501 21.8236C87.1427 21.7537 87.1427 21.6832 87.1501 21.6133C87.2037 21.3598 87.337 21.1301 87.5306 20.9578C87.7453 20.7641 88.0268 20.6611 88.3159 20.6706C88.4212 20.6616 88.5273 20.6758 88.6266 20.7121C88.7259 20.7484 88.816 20.8061 88.8907 20.8809C89.0165 21.0206 89.0845 21.2028 89.0809 21.3907L89.0526 21.6133C88.9976 21.8634 88.8694 22.0916 88.6842 22.2687C88.5839 22.3695 88.4638 22.4485 88.3314 22.5008C88.1991 22.553 88.0573 22.5773 87.9152 22.5721C87.8088 22.5799 87.7021 22.5639 87.6027 22.5254C87.5033 22.4869 87.4137 22.4269 87.3404 22.3496Z" fill="#1C3D9E" stroke="#1C3D9E" stroke-miterlimit="10"/>
<path d="M94.582 31.3801C94.5825 31.2228 94.6043 31.0663 94.6467 30.9148V30.8339C94.8532 29.9236 95.096 28.8393 95.3672 27.5972C95.6223 26.4279 95.8611 25.3274 96.0999 24.3038C96.3149 24.1088 96.5948 24.0006 96.8852 24.0004C97.0445 23.9963 97.2025 24.0295 97.3466 24.0975C97.4026 24.1178 97.451 24.1546 97.4857 24.203C97.5204 24.2513 97.5396 24.3091 97.5409 24.3685C97.4924 24.5749 97.379 24.9592 97.2373 25.5014C97.0957 26.0436 96.9338 26.5897 96.788 27.1198C96.6423 27.6498 96.533 28.0786 96.4844 28.3335L96.4521 28.4792C96.6464 28.0746 96.9823 27.4718 97.4762 26.6262C97.9645 25.7839 98.5053 24.9731 99.0953 24.1986C99.5252 23.5575 100.116 23.04 100.808 22.6976C100.937 22.6497 101.074 22.6224 101.212 22.6167C101.367 22.6127 101.52 22.6477 101.657 22.7184C101.794 22.7891 101.911 22.8933 101.998 23.0213C102.186 23.32 102.346 23.6356 102.475 23.964C102.609 24.2806 102.771 24.5852 102.957 24.8743C103.029 24.9996 103.134 25.1032 103.26 25.1744C103.386 25.2455 103.529 25.2816 103.673 25.2789C104.058 25.2789 104.588 24.9754 105.24 24.3847C105.293 24.3329 105.361 24.299 105.434 24.2876C105.515 24.2876 105.548 24.3362 105.56 24.4454V24.5263C105.548 24.5761 105.526 24.623 105.495 24.664C105.465 24.7051 105.426 24.7395 105.382 24.765C104.937 25.2335 104.438 25.6477 103.896 25.999C103.58 26.2068 103.217 26.332 102.84 26.3632C102.676 26.3704 102.513 26.3372 102.366 26.2667C102.218 26.1961 102.09 26.0903 101.994 25.9586C101.775 25.6761 101.588 25.3708 101.435 25.0483C101.32 24.8028 101.184 24.5673 101.03 24.3443C100.973 24.252 100.893 24.1758 100.798 24.1228C100.703 24.0697 100.596 24.0415 100.488 24.0408C100.392 24.0425 100.299 24.0646 100.213 24.1056C99.5751 24.4994 99.0474 25.0477 98.6784 25.6996C97.6293 27.3366 96.7761 29.0911 96.1363 30.927C96.0557 31.1913 95.9312 31.4403 95.768 31.6633C95.6992 31.7695 95.6042 31.8561 95.4922 31.915C95.3802 31.9738 95.2549 32.0028 95.1284 31.9991C94.7762 32.0032 94.582 31.7928 94.582 31.3801Z" fill="#1C3D9E" stroke="#1C3D9E" stroke-miterlimit="10"/>
<path d="M113.785 29.2358C113.352 28.883 113.053 28.3936 112.935 27.848C112.818 27.3264 112.733 26.7981 112.68 26.2661C112.631 25.9303 112.599 25.643 112.55 25.4164C112.502 25.1899 112.441 25.0968 112.328 25.0806C112.214 25.0644 112.105 25.1939 111.923 25.4003C111.846 25.5135 111.636 25.7684 111.3 26.1528C110.964 26.5372 110.567 26.962 110.085 27.4151C109.608 27.8612 109.095 28.2671 108.551 28.6289C108.113 28.948 107.591 29.1309 107.049 29.1549C106.909 29.1685 106.767 29.1433 106.64 29.0819C106.513 29.0206 106.405 28.9254 106.329 28.8069C106.173 28.5236 106.096 28.2036 106.106 27.8804C106.105 27.6388 106.127 27.3977 106.171 27.1602C106.326 26.4253 106.608 25.7229 107.005 25.0847C107.412 24.4239 107.951 23.8537 108.588 23.4097C109.205 22.9769 109.942 22.7477 110.696 22.7542C111.37 22.7627 112.031 22.9438 112.615 23.2802C112.803 23.1034 113.046 22.9963 113.303 22.9767C113.672 22.9767 113.862 23.3126 113.894 24.0489C113.91 24.9979 113.995 25.9445 114.149 26.8811C114.408 28.0139 114.959 28.5722 115.813 28.5399C116.605 28.504 117.375 28.2688 118.051 27.8561C118.9 27.3748 119.703 26.8183 120.452 26.1932C121.152 25.6033 121.814 24.9681 122.431 24.2917C122.464 24.2373 122.516 24.197 122.577 24.1784C122.622 24.1604 122.67 24.1495 122.719 24.146C122.785 24.1461 122.85 24.157 122.913 24.1784C122.961 24.1784 122.978 24.2431 122.978 24.324V24.3888C122.937 24.5441 122.853 24.6846 122.735 24.7934C122.028 25.5442 121.275 26.2496 120.48 26.9053C119.613 27.632 118.682 28.2793 117.699 28.8393C116.908 29.3269 116.005 29.6053 115.076 29.6485C114.612 29.6561 114.158 29.5111 113.785 29.2358ZM109.434 27.0146C110.055 26.4703 110.638 25.8836 111.178 25.2586C111.574 24.8278 111.931 24.3635 112.247 23.8709C111.967 23.6691 111.632 23.5576 111.287 23.5513C110.475 23.5806 109.703 23.9176 109.13 24.494C108.48 25.0704 108.004 25.8175 107.758 26.6504C107.7 26.8864 107.667 27.1278 107.661 27.3706C107.661 27.7064 107.774 27.8683 107.997 27.8521C108.349 27.848 108.81 27.577 109.434 27.0146Z" fill="#1C3D9E" stroke="#1C3D9E" stroke-miterlimit="10"/>
<path d="M133.146 35.2439C133.001 35.1447 132.882 35.0112 132.801 34.8552C132.72 34.6992 132.678 34.5256 132.68 34.3498C132.683 34.2319 132.694 34.1143 132.713 33.9978C132.826 33.4071 133.258 32.7206 134.008 31.9384C134.952 31.0005 136.01 30.1849 137.157 29.5109C138.095 28.8888 139.079 28.3384 140.1 27.8642C140.392 27.7566 140.7 27.6964 141.011 27.6862C141.256 27.6763 141.501 27.7148 141.731 27.7995C141.922 27.8804 142.019 27.9411 142.019 28.022C141.992 28.0658 141.953 28.0999 141.905 28.1191C141.501 28.2607 140.918 28.5237 140.165 28.8676C139.412 29.2115 138.614 29.6525 137.781 30.1299C136.661 30.765 135.611 31.5149 134.648 32.3673C133.915 33.0551 133.498 33.6175 133.401 34.0464V34.2082C133.403 34.2991 133.431 34.3874 133.482 34.4631C133.582 34.5753 133.708 34.6616 133.849 34.7144C133.99 34.7673 134.142 34.7852 134.291 34.7665C135.165 34.7052 136.02 34.4887 136.817 34.1273C137.924 33.684 138.989 33.1424 139.999 32.5089C140.974 31.9069 141.876 31.1941 142.687 30.3848C143.359 29.7751 143.85 28.9908 144.103 28.1191C144.132 27.9766 144.147 27.8316 144.148 27.6862C144.129 27.3631 144.036 27.0489 143.875 26.768C143.714 26.4872 143.49 26.2475 143.221 26.0678C142.476 25.5917 141.654 25.2468 140.792 25.0482C139.752 24.7731 138.651 24.5344 137.453 24.3281C136.461 24.1339 135.502 23.9235 134.558 23.705C133.683 23.5135 132.827 23.2426 132 22.8958C131.313 22.6271 130.703 22.1936 130.223 21.6335C129.768 21.1227 129.521 20.4602 129.531 19.7764C129.535 19.5303 129.562 19.2851 129.612 19.0441C129.671 18.7519 129.762 18.467 129.883 18.1945C130.604 16.7178 131.596 15.3904 132.81 14.2821C134.328 12.814 135.977 11.4869 137.736 10.3171C139.514 9.10699 141.403 8.06923 143.379 7.21791C144.921 6.48683 146.595 6.07402 148.301 6.00413C148.958 5.98548 149.611 6.1242 150.203 6.40872C150.472 6.55638 150.698 6.77103 150.859 7.03179C151.003 7.29736 151.074 7.59592 151.066 7.89762C151.062 8.11812 151.036 8.33769 150.989 8.55306C150.808 9.30054 150.516 10.0166 150.122 10.6772C149.68 11.4441 149.195 12.1856 148.669 12.8984C148.167 13.6549 147.527 14.3109 146.783 14.8323C146.206 15.2178 145.551 15.4694 144.864 15.5687C146.038 14.6267 147.066 13.517 147.916 12.2753C148.856 11.0847 149.577 9.7367 150.046 8.29412C150.076 8.16141 150.093 8.02575 150.094 7.88953C150.116 7.74185 150.082 7.59142 149.999 7.46735C149.916 7.34329 149.79 7.2544 149.645 7.21791C149.298 7.13855 148.944 7.10052 148.588 7.10462C147.313 7.1425 146.056 7.41689 144.88 7.9138C143.412 8.49282 141.999 9.20376 140.659 10.0379C139.24 10.9068 137.887 11.8791 136.611 12.9469C135.439 13.9117 134.348 14.9698 133.348 16.1108C132.296 17.3731 131.689 18.4413 131.51 19.2909C131.466 19.4792 131.445 19.6721 131.446 19.8654C131.441 20.1338 131.49 20.4005 131.589 20.6498C131.688 20.8992 131.836 21.1263 132.025 21.3179C132.452 21.7586 132.97 22.1021 133.542 22.3253C134.228 22.6156 134.94 22.8405 135.668 22.997C136.437 23.1709 137.234 23.349 138.096 23.5229C139.282 23.7657 140.416 24.0206 141.505 24.3078C142.455 24.5382 143.368 24.8976 144.221 25.376C144.675 25.643 145.068 26.0029 145.374 26.4319C145.605 26.7946 145.726 27.2161 145.722 27.6457C145.723 27.8349 145.703 28.0235 145.662 28.2081C145.341 29.2662 144.745 30.2199 143.933 30.9715C142.994 31.9004 141.947 32.7153 140.816 33.399C139.835 34.0344 138.784 34.5544 137.683 34.9486C136.682 35.3118 135.631 35.5219 134.567 35.5717C134.07 35.6171 133.572 35.5022 133.146 35.2439Z" fill="#1C3D9E" stroke="#1C3D9E" stroke-miterlimit="10"/>
<path d="M148.961 31.7766C148.481 31.3419 148.18 30.7452 148.115 30.1016C148.082 29.8847 148.066 29.6656 148.066 29.4462C148.066 28.9991 148.119 28.5537 148.224 28.1191C148.54 26.7139 149.173 25.3994 150.074 24.2755C150.153 24.1921 150.247 24.1252 150.352 24.0786C150.457 24.0321 150.57 24.0069 150.685 24.0044C150.92 24.0031 151.149 24.0753 151.341 24.2108C151.424 24.2622 151.493 24.3328 151.543 24.4166C151.593 24.5003 151.622 24.5949 151.628 24.6922V24.7691C151.6 24.8784 151.544 24.9786 151.466 25.0604C151.007 25.5378 150.624 26.0838 150.333 26.6788C150.007 27.3109 149.765 27.9828 149.612 28.6774V28.726C149.551 29.0202 149.519 29.3197 149.515 29.6201C149.482 30.0941 149.618 30.5646 149.9 30.9472C150.005 31.0889 150.142 31.2033 150.301 31.2807C150.459 31.3582 150.634 31.3964 150.811 31.3922C151.229 31.3716 151.627 31.2023 151.932 30.9148C152.359 30.5223 152.688 30.0343 152.891 29.4907C152.996 29.2208 153.082 28.9436 153.146 28.6613C153.209 28.3837 153.241 28.1002 153.243 27.8157C153.252 27.5759 153.213 27.3367 153.13 27.1117C153.103 27.0296 153.057 26.9551 152.996 26.8939C152.935 26.8328 152.86 26.7868 152.778 26.7597C152.505 26.694 152.255 26.554 152.057 26.3551C151.931 26.2327 151.852 26.0692 151.835 25.8939V25.7806C151.873 25.6175 151.97 25.4738 152.106 25.376C152.253 25.2672 152.433 25.2116 152.616 25.2182C152.847 25.2264 153.072 25.2917 153.272 25.4083C153.538 25.5786 153.767 25.8017 153.944 26.0638C154.51 26.2298 155.098 26.3103 155.688 26.3025C156.531 26.3007 157.367 26.1627 158.166 25.8939C159.165 25.5257 160.094 24.9908 160.914 24.3119C160.968 24.2648 161.037 24.2365 161.108 24.231C161.138 24.2299 161.167 24.2351 161.194 24.2463C161.221 24.2574 161.246 24.2743 161.266 24.2957C161.296 24.343 161.313 24.3975 161.315 24.4535V24.4859C161.294 24.5501 161.255 24.6065 161.201 24.6477C160.276 25.4636 159.223 26.1224 158.085 26.5978C157.103 26.9872 156.056 27.1876 155 27.1885C154.729 27.1885 154.458 27.1885 154.191 27.1562C154.191 27.3302 154.219 27.492 154.219 27.666C154.223 28.0049 154.186 28.3431 154.11 28.6734C154.001 29.1872 153.817 29.6822 153.563 30.1421C153.233 30.8136 152.739 31.3911 152.126 31.8211C151.652 32.1576 151.088 32.3462 150.507 32.3633C149.935 32.373 149.382 32.163 148.961 31.7766Z" fill="#1C3D9E" stroke="#1C3D9E" stroke-miterlimit="10"/>
<path d="M160.295 29.4461C160.059 29.0151 159.943 28.529 159.959 28.0382C159.964 27.5222 160.024 27.0082 160.137 26.5048C160.306 25.7561 160.54 25.0237 160.837 24.3159C160.926 24.1261 161.066 23.9649 161.242 23.8506C161.387 23.7614 161.553 23.7125 161.724 23.709C161.884 23.7055 162.04 23.7553 162.169 23.8506C162.23 23.8992 162.278 23.9608 162.312 24.0308C162.346 24.1008 162.363 24.1776 162.363 24.2552V24.4009C162.309 24.5854 162.245 24.7664 162.169 24.943C161.905 25.5904 161.696 26.259 161.545 26.9417C161.456 27.3019 161.409 27.6712 161.404 28.0422C161.397 28.3141 161.457 28.5836 161.578 28.8271C161.639 28.9322 161.728 29.018 161.835 29.0746C161.943 29.1311 162.064 29.1561 162.185 29.1467C163.162 28.9024 164.001 28.2811 164.521 27.4191C165.191 26.4222 165.795 25.3814 166.326 24.3038C166.597 23.7778 166.856 23.2802 167.095 22.8311C167.242 22.5759 167.451 22.3616 167.702 22.208C167.912 22.0887 168.149 22.0234 168.39 22.0178C168.603 22.0164 168.81 22.083 168.981 22.208C169.063 22.2795 169.127 22.3689 169.169 22.4693C169.21 22.5697 169.228 22.6783 169.22 22.7866L169.2 23.0617C169.18 23.124 169.164 23.1875 169.151 23.2519C169.151 23.2519 169.151 23.3004 169.119 23.3166C168.891 23.9027 168.709 24.5061 168.577 25.1211C168.457 25.6785 168.394 26.2463 168.386 26.8163C168.376 27.2793 168.451 27.7402 168.609 28.1757C168.665 28.3398 168.755 28.4901 168.874 28.6164C168.992 28.7427 169.137 28.8421 169.297 28.908C169.445 28.9612 169.601 28.9885 169.759 28.989C170.414 28.989 171.341 28.6046 172.56 27.8237C174.183 26.6982 175.716 25.4483 177.146 24.0853C177.249 23.9848 177.386 23.927 177.53 23.9235C177.61 23.9199 177.688 23.9427 177.753 23.9882C177.778 24.0097 177.799 24.0364 177.812 24.0664C177.826 24.0964 177.834 24.1291 177.834 24.1622V24.2269C177.807 24.3129 177.756 24.3899 177.688 24.4494C176.636 25.4245 175.596 26.3065 174.588 27.1197C173.68 27.8683 172.706 28.532 171.677 29.1022C170.892 29.5671 170.003 29.8299 169.091 29.8669C168.803 29.8754 168.516 29.8244 168.249 29.7172C167.981 29.61 167.739 29.4489 167.536 29.2438C167.156 28.8393 166.961 28.1272 166.961 27.0712C166.978 26.2546 167.075 25.4416 167.249 24.6436L167.536 23.4299V23.3975C167.536 23.3975 167.476 23.4299 167.427 23.5067C167.331 23.6442 167.246 23.7889 167.172 23.9397C167.042 24.1784 166.913 24.4373 166.767 24.7084C166.431 25.3638 166.063 26.0638 165.63 26.7839C165.216 27.4814 164.729 28.1325 164.177 28.726C163.707 29.2625 163.1 29.66 162.42 29.875C162.123 29.9637 161.815 30.0127 161.505 30.0207C161.269 30.0541 161.029 30.0175 160.813 29.9153C160.598 29.8132 160.418 29.65 160.295 29.4461Z" fill="#1C3D9E" stroke="#1C3D9E" stroke-miterlimit="10"/>
<path d="M177.045 32.4482C176.693 31.8251 176.518 30.8299 176.518 29.5392C176.602 27.1447 176.918 24.764 177.462 22.4305C178.036 19.7117 178.822 16.7663 179.797 13.5295C178.708 13.7197 177.652 13.9341 176.616 14.1364C172.313 15.0306 169.9 15.9733 169.402 16.9686C169.357 17.019 169.3 17.0584 169.237 17.0837C169.174 17.1089 169.106 17.1194 169.038 17.1142C168.906 17.122 168.775 17.0818 168.67 17.0009C168.623 16.9804 168.583 16.9471 168.554 16.9049C168.526 16.8627 168.51 16.8132 168.508 16.7622V16.6975C169.038 15.6091 170.936 14.6745 174.231 13.9018C175.895 13.4972 177.814 13.1492 179.987 12.8134C180.291 11.7129 181.076 9.12353 182.307 5.03312C182.546 4.34531 182.849 3.99332 183.25 3.99332C183.364 3.99744 183.474 4.03439 183.568 4.09971C183.661 4.16503 183.733 4.25595 183.776 4.36149C183.859 4.51824 183.898 4.69428 183.89 4.87128C183.885 5.19137 183.813 5.50691 183.679 5.79779C182.995 7.79647 182.291 10.0662 181.554 12.5909C183.578 12.3036 184.942 12.0932 185.695 11.984C187.869 11.7331 189.532 11.5147 190.654 11.3286H190.799C190.941 11.3286 191.006 11.3771 191.006 11.4863C191.006 11.6806 190.896 11.806 190.654 11.8545C189.71 12.0164 188.306 12.2227 186.468 12.4776C184.444 12.7972 182.724 13.0683 181.335 13.3111L180.247 17.0657C179.688 19.0482 179.162 21.1116 178.696 23.2964C178.696 23.442 178.538 24.1298 178.291 25.3598C178.022 26.7594 177.894 28.1827 177.911 29.608C177.911 31.2709 178.316 32.1326 179.174 32.1812C179.846 32.1812 180.74 31.7766 181.858 30.9998C183.111 30.0805 184.277 29.0485 185.343 27.9168C186.528 26.718 187.634 25.4435 188.654 24.1015C188.753 24.035 188.87 24.0011 188.99 24.0044C189.212 24.0044 189.326 24.0853 189.326 24.1946V24.2593C188.765 25.0118 187.964 25.9869 186.925 27.1845C185.84 28.4296 184.67 29.5989 183.424 30.6842C182.34 31.6897 181.088 32.4976 179.724 33.0713C179.375 33.221 179 33.3021 178.619 33.31C178.306 33.3092 177.997 33.2299 177.722 33.0793C177.447 32.9288 177.214 32.7118 177.045 32.4482Z" fill="#1C3D9E" stroke="#1C3D9E" stroke-miterlimit="10"/>
<path d="M187.44 31.7766C186.966 31.3389 186.67 30.743 186.606 30.1016C186.573 29.8847 186.557 29.6656 186.557 29.4462C186.557 28.9989 186.611 28.5532 186.719 28.1191C187.032 26.715 187.66 25.4005 188.557 24.2755C188.635 24.1922 188.729 24.1253 188.833 24.0788C188.937 24.0322 189.05 24.0069 189.164 24.0044C189.399 24.0023 189.628 24.0745 189.82 24.2107C189.903 24.2622 189.972 24.3328 190.022 24.4166C190.072 24.5003 190.101 24.5949 190.107 24.6922V24.7691C190.079 24.8775 190.025 24.9775 189.949 25.0604C189.487 25.5365 189.103 26.0827 188.812 26.6788C188.485 27.3103 188.244 27.9824 188.095 28.6774V28.726C188.034 29.0202 188.002 29.3197 187.998 29.6201C187.968 30.0969 188.112 30.5683 188.403 30.9472C188.508 31.0889 188.646 31.2033 188.804 31.2807C188.963 31.3582 189.137 31.3964 189.314 31.3922C189.731 31.3713 190.127 31.202 190.431 30.9148C190.858 30.5223 191.187 30.0343 191.39 29.4907C191.499 29.2221 191.584 28.9446 191.645 28.6613C191.708 28.3837 191.74 28.1002 191.742 27.8157C191.751 27.5758 191.712 27.3367 191.629 27.1117C191.603 27.0297 191.558 26.9552 191.497 26.894C191.437 26.8328 191.363 26.7868 191.281 26.7597C191.008 26.6948 190.758 26.5546 190.56 26.3551C190.432 26.2338 190.353 26.0697 190.338 25.8938V25.7806C190.376 25.6164 190.475 25.4723 190.613 25.376C190.76 25.2672 190.94 25.2116 191.123 25.2182C191.354 25.2269 191.579 25.2922 191.779 25.4083C192.044 25.5796 192.273 25.8025 192.451 26.0638C193.016 26.2301 193.602 26.3105 194.191 26.3025C195.026 26.2984 195.854 26.1604 196.644 25.8938C197.645 25.5267 198.576 24.9917 199.397 24.3119C199.45 24.2649 199.517 24.2364 199.587 24.231C199.617 24.2293 199.647 24.2342 199.675 24.2454C199.703 24.2566 199.728 24.2738 199.749 24.2957C199.779 24.343 199.796 24.3975 199.798 24.4535V24.4859C199.777 24.5501 199.738 24.6065 199.684 24.6477C198.758 25.463 197.706 26.1217 196.567 26.5978C195.586 26.9821 194.541 27.1783 193.487 27.1764C193.216 27.1764 192.945 27.1764 192.677 27.144C192.677 27.318 192.71 27.4798 192.71 27.6538C192.712 27.9929 192.674 28.3311 192.596 28.6613C192.489 29.1749 192.307 29.6699 192.054 30.1299C191.723 30.8006 191.229 31.3778 190.617 31.809C190.142 32.1444 189.579 32.3329 188.998 32.3511C188.424 32.3682 187.865 32.1623 187.44 31.7766Z" fill="#1C3D9E" stroke="#1C3D9E" stroke-miterlimit="10"/>
<path d="M42.7695 22.6814C42.9072 29.0213 35.621 37.5218 28.6304 42.4133C22.5222 46.9447 17.2398 44.3634 11.4878 39.6823C6.04748 34.9405 0.137622 28.0948 0.0283299 22.6814C-0.457412 16.9645 5.5253 10.0703 11.0587 5.32846C16.9362 0.663519 22.3684 -1.84899 28.6911 2.90091C35.6939 7.86525 42.9314 16.2969 42.7695 22.6652V22.6814ZM42.5145 22.6814C42.0976 14.6219 29.9176 3.35405 21.6357 3.10725C15.0135 3.23672 6.96634 10.3049 3.51353 16.4466C-0.109297 23.0212 0.862186 28.6653 8.39523 35.9358C16.4909 44.4322 24.8295 44.6466 33.0871 37.0403C38.074 32.7719 42.6117 27.4717 42.5024 22.6854L42.5145 22.6814Z" fill="#1C3D9E"/>
<path d="M11.1073 34.8475C10.6256 33.7631 10.237 32.076 9.9496 29.7698C9.6695 27.6232 9.52484 25.4611 9.51648 23.2964C9.49637 22.1203 9.58308 20.9449 9.77554 19.7845C9.82016 19.4922 9.93396 19.2148 10.1075 18.9753C10.2464 18.7937 10.4326 18.6537 10.6458 18.5707C10.819 18.4976 11.0044 18.4578 11.1923 18.4534C11.3541 18.4513 11.5149 18.4802 11.6659 18.5384C11.7833 18.591 11.848 18.6557 11.848 18.7124V18.7326C11.848 18.773 11.7833 18.8175 11.678 18.8499C11.2891 19.297 11.0449 19.8514 10.9778 20.44C10.7479 21.8087 10.6409 23.1952 10.658 24.583C10.6553 26.3738 10.7661 28.163 10.9899 29.9398C11.1 31.2257 11.372 32.4927 11.7995 33.7106C11.8642 33.8279 11.9411 33.8926 12.0383 33.8926C12.3824 33.8926 12.9288 33.3424 13.6898 32.2743C14.4508 31.2061 15.3089 29.7941 16.2683 28.107C17.2276 26.4198 18.2032 24.6518 19.203 22.7825C20.2028 20.9133 21.1257 19.1655 21.9758 17.5229C22.7165 16.0946 23.3277 14.9132 23.8337 13.9786C24.1168 13.4191 24.4359 12.8785 24.789 12.3603C24.9534 12.2169 25.1533 12.1205 25.3678 12.0811C25.5976 12.0281 25.8324 11.9997 26.0681 11.9961C26.2042 11.9926 26.3402 12.0062 26.4729 12.0366C26.5943 12.069 26.647 12.1013 26.647 12.158L26.6146 12.2106C25.4247 13.6276 24.3742 15.1559 23.4775 16.7744C22.2551 18.8701 20.9773 21.1399 19.6442 23.5836C18.8225 25.0847 17.8105 26.9579 16.1266 29.8346C15.2634 31.3687 14.2864 32.836 13.2041 34.2244C12.9931 34.4754 12.7586 34.7057 12.5038 34.9122C12.2857 35.1245 11.9982 35.251 11.6942 35.2682C11.5671 35.2589 11.4451 35.2147 11.3415 35.1404C11.2379 35.0662 11.1569 34.9648 11.1073 34.8475Z" fill="#1C3D9E" stroke="#1C3D9E" stroke-miterlimit="10"/>
<path d="M18.863 34.6937C18.7378 34.6084 18.6354 34.4937 18.5648 34.3597C18.4943 34.2257 18.4576 34.0764 18.4582 33.925C18.4602 33.8234 18.4683 33.7221 18.4825 33.6215C18.6832 32.9397 19.0684 32.3264 19.5956 31.8494C20.4081 31.0404 21.3177 30.3351 22.3036 29.7496C23.1123 29.2101 23.9607 28.7326 24.8416 28.3214C25.0922 28.2297 25.3561 28.1791 25.6229 28.1717C25.8337 28.1634 26.044 28.1964 26.2422 28.2688C26.4081 28.3376 26.4891 28.3902 26.4891 28.459C26.4666 28.4969 26.4326 28.5267 26.3919 28.5439C26.0357 28.6653 25.5419 28.8878 24.8942 29.1872C24.2466 29.4866 23.5625 29.8629 22.846 30.2715C21.8839 30.8114 20.9816 31.4515 20.1542 32.1812C19.5228 32.7719 19.1652 33.2534 19.0815 33.6256V33.7631C19.0829 33.8411 19.1068 33.9169 19.1504 33.9816C19.2377 34.0778 19.347 34.1515 19.4688 34.1966C19.5907 34.2417 19.7217 34.2568 19.8506 34.2406C20.5996 34.1914 21.3341 34.0106 22.0203 33.7065C22.972 33.3217 23.8877 32.8532 24.7566 32.3066C25.5945 31.7891 26.3688 31.1753 27.0639 30.4779C27.6398 29.9578 28.0601 29.2884 28.2782 28.5439C28.3057 28.4218 28.3193 28.2969 28.3187 28.1717C28.3026 27.8913 28.221 27.6187 28.0804 27.3756C27.9398 27.1324 27.7442 26.9257 27.5092 26.7718C26.8687 26.3612 26.1621 26.0642 25.4205 25.8938C24.5299 25.6592 23.5787 25.4528 22.5505 25.2748C21.6964 25.1089 20.8747 24.9309 20.0611 24.7408C19.3089 24.5793 18.5732 24.3491 17.8631 24.053C17.2748 23.8212 16.7522 23.449 16.3411 22.9686C15.9565 22.5278 15.7501 21.9594 15.7623 21.3746C15.77 20.9055 15.8733 20.4429 16.0659 20.0151C16.4877 18.9265 17.1652 17.9551 18.0412 17.183C19.3449 15.9332 20.7578 14.8026 22.2631 13.8047C23.794 12.7651 25.4205 11.8737 27.1206 11.1424C28.4474 10.5198 29.8859 10.1704 31.3506 10.1148C31.9099 10.0997 32.4648 10.2175 32.9697 10.4587C33.2009 10.5842 33.395 10.7684 33.5323 10.9927C33.6613 11.2181 33.7283 11.4735 33.7266 11.7331C33.7223 11.9238 33.6992 12.1135 33.6578 12.2996C33.5064 12.9423 33.2566 13.5578 32.9171 14.1243C32.5353 14.7832 32.1177 15.4207 31.6663 16.034C31.2345 16.6839 30.6854 17.2477 30.0472 17.6968C29.5494 18.0253 28.9857 18.2408 28.3956 18.328C29.4065 17.5188 30.2918 16.5644 31.0227 15.4958C31.8289 14.4733 32.447 13.3157 32.8483 12.0771C32.8743 11.9642 32.8879 11.8489 32.8887 11.7331C32.9069 11.6039 32.8751 11.4726 32.8 11.3659C32.7248 11.2592 32.6118 11.1851 32.484 11.1586C32.1866 11.0909 31.8822 11.0583 31.5772 11.0615C30.4899 11.0903 29.4171 11.3179 28.4118 11.7331C27.1444 12.2309 25.925 12.843 24.7688 13.5619C23.5449 14.3056 22.3785 15.1401 21.2795 16.0582C20.2723 16.8871 19.3342 17.7963 18.4744 18.7771C17.8883 19.3702 17.5214 20.1449 17.4341 20.974C17.4035 21.1407 17.3939 21.3107 17.4057 21.4798C17.4008 21.7105 17.4419 21.9399 17.5267 22.1546C17.6115 22.3692 17.7382 22.5648 17.8996 22.7299C18.2693 23.1077 18.7149 23.4028 19.207 23.5958C19.7962 23.8449 20.4074 24.0386 21.0326 24.1743C21.6924 24.324 22.3805 24.4737 23.1091 24.6275C24.1252 24.8338 25.1007 25.0523 26.0317 25.2991C26.8489 25.4962 27.6348 25.8053 28.3673 26.2175C28.7511 26.4444 29.0845 26.7473 29.3469 27.1076C29.5444 27.4155 29.6498 27.7735 29.6505 28.1393C29.6507 28.3015 29.6317 28.4631 29.5938 28.6208C29.3206 29.5313 28.8075 30.3516 28.1082 30.9957C27.3038 31.8004 26.4055 32.5054 25.4326 33.0956C24.5882 33.6424 23.6836 34.0904 22.7367 34.4307C21.8754 34.742 20.972 34.922 20.0571 34.9648C19.6406 34.9998 19.2234 34.9051 18.863 34.6937Z" fill="#1C3D9E" stroke="#1C3D9E" stroke-miterlimit="10"/>
</g>
<defs>
<clipPath id="clip0_84_81">
<rect width="200" height="44.7761" fill="white"/>
</clipPath>
</defs>
</svg>
