<svg width="58" height="60" viewBox="0 0 58 60" fill="none" xmlns="http://www.w3.org/2000/svg">
<g clip-path="url(#clip0_68_490)">
<path d="M57.9949 30.161C58.1588 38.7441 48.2206 50.2309 38.7845 56.8254C30.501 62.9599 23.3445 59.4632 15.5425 53.1448C8.19643 46.7291 0.158806 37.4815 0.0358595 30.161C-0.589118 22.4163 7.50998 13.1124 15.0046 6.71722C22.9551 0.419188 30.3012 -2.97009 38.8562 3.4404C48.3385 10.1269 58.21 21.5217 57.9949 30.161ZM57.6721 30.161C57.0984 19.211 40.557 3.82892 29.3125 3.48641C20.3272 3.67556 9.34906 13.2913 4.64635 21.6495C-0.286875 30.5802 1.06041 38.2227 11.306 48.1196C22.3404 59.7188 33.6054 60.0767 44.8908 49.6532C51.6631 43.8153 57.8053 36.6431 57.6721 30.161Z" fill="#4775FF"/>
<path d="M15.02 46.6371C14.3438 45.1699 13.8315 42.8849 13.4473 39.7512C13.0691 36.8456 12.8741 33.9191 12.8633 30.9891C12.8325 29.3954 12.9491 27.8022 13.2116 26.2298C13.2712 25.8311 13.4258 25.4524 13.6624 25.1256C13.8445 24.8631 14.099 24.6589 14.395 24.5378C14.6302 24.4374 14.8821 24.382 15.1378 24.3742C15.3599 24.3864 15.5775 24.442 15.7781 24.5378C15.9421 24.6093 16.0291 24.6962 16.0291 24.7729V24.7985C16.0291 24.8598 15.9421 24.916 15.7935 24.9621C15.3683 25.3148 15.0661 26.0254 14.856 27.0938C14.543 28.9515 14.3973 30.8334 14.4206 32.717C14.4112 35.152 14.5567 37.5851 14.856 40.0017C15.1463 42.418 15.5066 44.122 15.9369 45.1137C16.024 45.2773 16.1265 45.3642 16.2545 45.3642C16.7207 45.3642 17.4686 44.623 18.5034 43.1507C19.5382 41.6784 20.696 39.7819 22.0279 37.4968C23.3598 35.2117 24.6559 32.809 26.0083 30.2786C27.3607 27.7481 28.6209 25.371 29.7735 23.1575C30.7981 21.22 31.6126 19.62 32.2991 18.3522C32.6809 17.5879 33.1139 16.8501 33.5951 16.1438C33.8186 15.9482 34.0914 15.8174 34.384 15.7655C34.6944 15.6905 35.0124 15.6511 35.3317 15.6479C35.5229 15.6432 35.7139 15.6621 35.9004 15.7042C36.0592 15.7502 36.136 15.7911 36.136 15.8677V15.8933L36.0899 15.9649C34.4694 17.8809 33.0386 19.949 31.8175 22.1402C30.1543 24.9757 28.4177 28.0429 26.6077 31.3419C25.5165 33.3867 24.1231 35.912 21.8537 39.8176C20.683 41.8984 19.3558 43.8876 17.8836 45.7681C17.5903 46.1186 17.2625 46.4388 16.9051 46.724C16.6068 47.0126 16.2136 47.1833 15.7986 47.2045C15.6295 47.1892 15.4677 47.1283 15.3306 47.0284C15.1934 46.9284 15.0861 46.7932 15.02 46.6371Z" fill="#4775FF" stroke="#4775FF" stroke-miterlimit="10"/>
<path d="M25.5524 46.4275C25.3861 46.3132 25.25 46.1606 25.1555 45.9826C25.0609 45.8046 25.0108 45.6065 25.0094 45.4051C25.0137 45.2682 25.0257 45.1317 25.0452 44.9961C25.3257 44.0691 25.8575 43.2376 26.5821 42.5935C27.6717 41.4899 28.8953 40.5265 30.2243 39.7256C31.3225 39.008 32.4732 38.374 33.6668 37.829C34.0069 37.7041 34.365 37.635 34.7273 37.6246C35.0129 37.6126 35.2982 37.656 35.5674 37.7524C35.7928 37.8444 35.9055 37.9211 35.9055 38.0131C35.8729 38.0626 35.8267 38.1017 35.7723 38.1255C35.2908 38.2942 34.6197 38.5907 33.7232 38.9997C32.8267 39.4087 31.9149 39.9096 30.9467 40.472C29.6384 41.2015 28.4122 42.0687 27.289 43.0587C26.4335 43.8561 25.9468 44.5105 25.8341 45.0115V45.2006C25.8382 45.3066 25.8719 45.4093 25.9315 45.4971C26.0481 45.6293 26.1956 45.7306 26.3609 45.7922C26.5263 45.8537 26.7043 45.8735 26.8792 45.8498C27.898 45.7838 28.897 45.538 29.8299 45.1239C31.1199 44.6023 32.361 43.9676 33.5388 43.2274C34.6768 42.5252 35.7289 41.6932 36.6739 40.748C37.4544 40.0424 38.0237 39.1346 38.3183 38.1255C38.4241 37.6684 38.3818 37.1896 38.1978 36.7579C38.0137 36.3262 37.6972 35.9638 37.2938 35.7229C36.4257 35.1651 35.4672 34.7621 34.4609 34.5318C33.2468 34.2148 31.961 33.9337 30.5624 33.6934C29.4047 33.4685 28.2828 33.2282 27.1865 32.9675C26.1642 32.7508 25.1643 32.4393 24.2 32.0371C23.4076 31.7191 22.7044 31.2138 22.1509 30.5648C21.6283 29.9689 21.3486 29.1992 21.3671 28.4076C21.376 27.7709 21.5154 27.1429 21.7769 26.5621C22.3524 25.0887 23.2728 23.7741 24.4612 22.7281C26.2361 21.0268 28.1596 19.4871 30.209 18.1272C32.285 16.7209 34.4889 15.5126 36.7917 14.5181C38.5856 13.6634 40.5332 13.1767 42.519 13.0868C43.285 13.0631 44.0455 13.2226 44.7371 13.552C45.0568 13.7119 45.3235 13.9605 45.5052 14.2679C45.6869 14.5752 45.776 14.9284 45.7617 15.2849C45.7539 15.5411 45.723 15.796 45.6695 16.0466C45.4538 16.9179 45.1085 17.7519 44.6449 18.5209C44.1291 19.4171 43.5612 20.2826 42.9442 21.1127C42.359 21.993 41.6136 22.756 40.7465 23.362C40.0734 23.8104 39.3087 24.1038 38.5079 24.2208C39.8754 23.1226 41.0749 21.831 42.0682 20.3868C43.167 18.9991 44.0131 17.4298 44.5681 15.7501C44.6022 15.5973 44.621 15.4415 44.6244 15.2849C44.6505 15.1145 44.6126 14.9405 44.5181 14.7962C44.4236 14.6518 44.2791 14.5474 44.1122 14.5028C43.7071 14.4113 43.2929 14.3667 42.8776 14.3699C41.3751 14.418 39.8949 14.7457 38.513 15.3361C36.8012 16.0123 35.1536 16.8403 33.59 17.8103C31.9305 18.8243 30.3468 19.957 28.8514 21.1996C27.4865 22.3252 26.2137 23.5577 25.0452 24.8854C23.8158 26.3576 23.8362 26.8791 23.6313 27.8657C23.5846 28.0806 23.5623 28.3001 23.5647 28.52C23.5583 28.8324 23.6144 29.1429 23.7296 29.4335C23.8448 29.724 24.0169 29.9887 24.2358 30.2121C24.7367 30.7235 25.3409 31.1226 26.0083 31.3828C26.8098 31.7213 27.6417 31.9832 28.4928 32.1649C29.3842 32.3694 30.3166 32.579 31.3052 32.7835C32.6884 33.0595 34.0101 33.356 35.2805 33.6934C36.3791 33.965 37.4356 34.3847 38.4208 34.9407C38.9489 35.252 39.406 35.6699 39.7629 36.1676C40.0314 36.5856 40.1737 37.0719 40.1728 37.5683C40.1757 37.7869 40.1516 38.0049 40.101 38.2176C39.7272 39.4499 39.0325 40.5612 38.0878 41.4381C36.9911 42.528 35.7684 43.4838 34.4455 44.2855C33.3026 45.027 32.0768 45.6326 30.793 46.0901C29.6241 46.5132 28.3979 46.758 27.1558 46.816C26.594 46.8539 26.0342 46.7183 25.5524 46.4275Z" fill="#4775FF" stroke="#4775FF" stroke-miterlimit="10"/>
</g>
<defs>
<clipPath id="clip0_68_490">
<rect width="58" height="60" fill="white"/>
</clipPath>
</defs>
</svg>
