<svg width="12" height="9" viewBox="0 0 12 9" fill="none" xmlns="http://www.w3.org/2000/svg">
<path d="M10.5 0H1.5C0.671625 0 0 0.671625 0 1.5V7.5C0 8.32838 0.671625 9 1.5 9H10.5C11.3284 9 12 8.32838 12 7.5V1.5C12 0.671625 11.3284 0 10.5 0ZM8.031 4.00268L11.2061 1.28173C11.228 1.35204 11.25 1.42235 11.25 1.5V7.5C11.25 7.55201 11.2302 7.59816 11.22 7.64721L8.031 4.00268ZM10.5 0.75C10.5498 0.75 10.5938 0.769055 10.6406 0.77857L6 4.75636L1.35938 0.77857C1.40625 0.769055 1.4502 0.75 1.5 0.75H10.5ZM0.779672 7.64648C0.769406 7.59741 0.75 7.55201 0.75 7.5V1.5C0.75 1.42235 0.772336 1.35204 0.79432 1.28173L3.96827 4.00195L0.779672 7.64648ZM1.5 8.25C1.4242 8.25 1.35534 8.22802 1.28613 8.20678L4.53809 4.49046L5.75611 5.53416C5.82605 5.59498 5.91321 5.625 6 5.625C6.08679 5.625 6.17395 5.59498 6.24389 5.53418L7.46191 4.49048L10.7139 8.2068C10.645 8.22802 10.5762 8.25 10.5 8.25H1.5Z" fill="#FAFAFA"/>
</svg>
