<svg width="12" height="13" viewBox="0 0 12 13" fill="none" xmlns="http://www.w3.org/2000/svg">
<g clip-path="url(#clip0_84_177)">
<path d="M12 6.34547C12 9.57387 9.3628 12.1909 6.10907 12.1909C5.07613 12.1909 4.10573 11.9269 3.26147 11.4636L0 12.5L1.06333 9.36373C0.526933 8.48293 0.218 7.44987 0.218 6.34547C0.218 3.11707 2.85547 0.5 6.10907 0.5C9.36307 0.5 12 3.11707 12 6.34547ZM6.10907 1.43093C3.37787 1.43093 1.15627 3.6356 1.15627 6.34547C1.15627 7.4208 1.5068 8.41667 2.09973 9.2268L1.48093 11.052L3.38427 10.4471C4.16627 10.9605 5.10307 11.26 6.1092 11.26C8.84 11.26 11.062 9.0556 11.062 6.34573C11.062 3.63587 8.84013 1.43093 6.10907 1.43093ZM9.08387 7.69173C9.04747 7.63213 8.95133 7.59613 8.80707 7.52453C8.66253 7.45293 7.9524 7.10613 7.8204 7.05853C7.688 7.0108 7.59147 6.9868 7.49533 7.13013C7.3992 7.2736 7.1224 7.59613 7.038 7.69173C6.95373 7.7876 6.8696 7.7996 6.72507 7.72787C6.5808 7.65627 6.1156 7.5048 5.564 7.0168C5.1348 6.63707 4.84493 6.16827 4.76067 6.02467C4.67653 5.88133 4.75187 5.80387 4.824 5.73253C4.88907 5.66827 4.96853 5.5652 5.04067 5.4816C5.11307 5.39787 5.13707 5.33827 5.18493 5.24253C5.23333 5.14693 5.2092 5.06333 5.17293 4.99147C5.13693 4.91987 4.84787 4.2148 4.7276 3.92787C4.60733 3.6412 4.4872 3.68893 4.4028 3.68893C4.31867 3.68893 4.22227 3.67693 4.126 3.67693C4.02973 3.67693 3.8732 3.7128 3.7408 3.85613C3.60853 3.9996 3.2356 4.34627 3.2356 5.0512C3.2356 5.75627 3.7528 6.43747 3.8252 6.53293C3.89733 6.6284 4.82387 8.12227 6.29187 8.696C7.76 9.26947 7.76 9.07813 8.0248 9.05413C8.28933 9.03027 8.87893 8.7076 8.99973 8.3732C9.11973 8.03827 9.11973 7.75147 9.08387 7.69173Z" fill="#FAFAFA"/>
</g>
<defs>
<clipPath id="clip0_84_177">
<rect width="12" height="12" fill="white" transform="translate(0 0.5)"/>
</clipPath>
</defs>
</svg>
